<?xml version="1.0" standalone="no"?>
<!DOCTYPE svg PUBLIC "-//W3C//DTD SVG 20010904//EN"
 "http://www.w3.org/TR/2001/REC-SVG-20010904/DTD/svg10.dtd">
<svg version="1.0" xmlns="http://www.w3.org/2000/svg"
 width="1920.000000pt" height="1080.000000pt" viewBox="0 0 1920.000000 1080.000000"
 preserveAspectRatio="xMidYMid meet">

<g transform="translate(0.000000,1080.000000) scale(0.100000,-0.100000)"
fill="#000000" stroke="none">
<path d="M3740 5395 l0 -3065 5860 0 5860 0 0 3065 0 3065 -5860 0 -5860 0 0
-3065z m11680 5 l0 -3030 -5820 0 -5820 0 0 3030 0 3030 5820 0 5820 0 0
-3030z"/>
<path d="M12194 7740 c-208 -31 -332 -148 -382 -363 -14 -62 -17 -139 -17
-537 0 -410 2 -474 18 -540 61 -261 213 -373 507 -372 196 0 303 33 391 121
61 61 99 131 126 231 16 58 18 117 18 560 0 449 -2 501 -18 559 -42 146 -115
242 -223 293 -106 50 -276 69 -420 48z m200 -281 c14 -7 33 -28 43 -48 17 -33
18 -76 18 -576 0 -503 -1 -542 -18 -573 -46 -84 -186 -80 -225 5 -15 34 -17
89 -17 563 0 566 1 580 52 620 29 23 106 27 147 9z"/>
<path d="M4840 7704 c0 -9 25 -152 55 -318 30 -166 84 -465 120 -666 36 -201
82 -456 102 -567 l36 -203 207 0 207 0 16 88 c100 553 298 1633 303 1655 l6
27 -178 -2 -178 -3 -87 -585 c-48 -322 -88 -587 -89 -590 -2 -5 -189 1155
-190 1173 0 4 -74 7 -165 7 -146 0 -165 -2 -165 -16z"/>
<path d="M6290 6835 l0 -885 195 0 195 0 0 885 0 885 -195 0 -195 0 0 -885z"/>
<path d="M7160 6834 l0 -886 318 4 c286 4 325 7 397 27 191 52 282 156 315
361 8 53 11 215 8 550 -4 457 -5 477 -26 540 -40 121 -97 186 -206 236 -99 45
-181 54 -507 54 l-299 0 0 -886z m560 602 c26 -9 41 -24 58 -57 l23 -44 -3
-512 c-3 -501 -3 -512 -24 -540 -30 -40 -68 -56 -151 -61 l-73 -5 0 617 0 616
68 -1 c37 0 83 -6 102 -13z"/>
<path d="M8660 6835 l0 -885 400 0 400 0 0 130 0 130 -205 0 -205 0 0 270 0
270 155 0 155 0 0 135 0 135 -155 0 -155 0 0 220 0 220 200 0 200 0 0 130 0
130 -395 0 -395 0 0 -885z"/>
<path d="M10520 7575 l0 -145 135 0 135 0 0 -740 0 -740 195 0 195 0 0 740 0
739 133 3 132 3 0 140 0 140 -462 3 -463 2 0 -145z"/>
<path d="M13320 6835 l0 -885 165 0 165 0 2 457 3 457 180 -457 180 -457 133
0 132 0 0 885 0 885 -160 0 -160 0 -2 -422 -3 -423 -180 422 -180 423 -137 0
-138 0 0 -885z"/>
<path d="M10540 4734 c-196 -34 -295 -98 -362 -235 -62 -127 -63 -137 -63
-674 0 -546 0 -548 71 -692 62 -127 168 -196 328 -212 172 -17 272 22 349 137
l15 24 5 -29 c3 -15 9 -47 12 -70 l7 -43 129 0 129 0 0 460 0 460 -255 0 -255
0 0 -115 0 -115 81 0 82 0 -5 -152 c-6 -172 -20 -224 -70 -259 -67 -48 -162
-28 -203 41 -19 34 -20 50 -20 570 0 583 0 587 56 615 42 22 121 19 152 -5 36
-29 47 -76 47 -212 l0 -118 197 0 196 0 -7 119 c-3 65 -13 144 -21 175 -43
164 -145 270 -300 313 -51 13 -249 25 -295 17z"/>
<path d="M11995 4729 c-169 -25 -276 -100 -340 -241 -53 -116 -56 -158 -53
-692 l3 -491 28 -79 c60 -170 142 -248 308 -292 77 -20 266 -23 354 -4 192 39
311 168 351 378 12 67 15 163 12 559 l-3 478 -28 80 c-49 145 -130 233 -251
276 -105 36 -249 47 -381 28z m226 -298 c36 -44 39 -87 39 -607 0 -531 -2
-556 -43 -601 -25 -28 -93 -39 -141 -23 -72 24 -71 10 -74 610 -2 474 -1 540
13 578 24 61 47 74 124 70 51 -3 67 -8 82 -27z"/>
<path d="M9260 3828 l0 -888 195 0 195 0 0 885 0 884 -195 3 -195 3 0 -887z"/>
<path d="M6560 3825 l0 -885 195 0 195 0 0 395 0 395 165 0 165 0 0 135 0 135
-165 0 -165 0 0 225 0 225 188 2 187 3 3 128 3 127 -386 0 -385 0 0 -885z"/>
<path d="M7720 3826 l0 -886 200 0 200 0 0 400 0 400 54 0 53 0 99 -400 98
-400 202 0 203 0 -9 28 c-5 15 -59 207 -121 426 l-113 399 24 16 c13 9 50 41
81 72 76 75 99 144 106 314 10 240 -47 369 -196 445 -119 60 -144 63 -529 67
l-352 5 0 -886z m626 604 c32 -16 48 -32 64 -67 31 -66 38 -176 16 -257 -30
-109 -89 -146 -233 -146 l-73 0 0 245 0 245 92 0 c72 0 101 -4 134 -20z"/>
</g>
</svg>
